<svg width="1327" height="320" viewBox="0 0 1327 320" fill="none" xmlns="http://www.w3.org/2000/svg">
<path d="M485.538 228.055H454.003V146.667C454.003 137.593 451.771 130.463 447.306 125.278C442.841 119.907 436.701 117.222 428.888 117.222C419.958 117.222 412.981 120.185 407.958 126.111C403.121 132.037 400.702 140.185 400.702 150.555V228.055H368.889V91.9444H400.144V103.889C408.702 93.7036 420.516 88.611 435.585 88.611C452.515 88.611 465.259 94.537 473.817 106.389C484.422 94.537 498.654 88.611 516.514 88.611C534.374 88.611 547.862 93.7962 556.978 104.167C566.281 114.352 570.932 129.259 570.932 148.889V228.055H539.118V146.667C539.118 137.593 536.886 130.463 532.421 125.278C527.956 119.907 521.816 117.222 514.002 117.222C505.072 117.222 498.096 120.278 493.073 126.389C488.049 132.315 485.538 140.37 485.538 150.555V228.055Z" fill="#FFFFFF"/>
<path d="M722.907 158.333L722.627 169.444H629.141C629.885 179.63 633.513 187.685 640.024 193.611C646.536 199.537 654.908 202.5 665.14 202.5C679.838 202.5 691.558 196.111 700.302 183.333L721.79 203.333C707.279 221.852 688.396 231.111 665.14 231.111C644.489 231.111 627.931 224.63 615.467 211.667C602.816 198.518 596.49 181.574 596.49 160.833C596.49 140.648 602.257 123.518 613.792 109.444C625.513 95.5555 641.048 88.611 660.396 88.611C681.047 88.611 696.581 95.4629 707 109.167C717.604 122.87 722.907 139.259 722.907 158.333ZM660.675 117.5C652.675 117.5 646.071 120 640.861 125C635.838 130 632.49 136.389 630.815 144.167H689.14C688.954 136.574 686.442 130.278 681.605 125.278C676.768 120.093 669.791 117.5 660.675 117.5Z" fill="#FFFFFF"/>
<path d="M813.827 88.611C829.083 88.611 841.827 93.0555 852.059 101.944V33.3333H883.873V228.055H852.617V215.833C842.943 226.018 830.013 231.111 813.827 231.111C794.479 231.111 778.479 224.444 765.828 211.111C753.363 197.593 747.131 180.555 747.131 160C747.131 139.444 753.363 122.407 765.828 108.889C778.293 95.3703 794.293 88.611 813.827 88.611ZM842.85 128.889C836.339 120.741 827.408 116.667 816.06 116.667C804.711 116.667 795.781 120.741 789.27 128.889C782.758 137.037 779.502 147.407 779.502 160C779.502 172.593 782.758 182.963 789.27 191.111C795.781 199.259 804.711 203.333 816.06 203.333C827.408 203.333 836.339 199.259 842.85 191.111C849.362 182.963 852.617 172.593 852.617 160C852.617 147.407 849.362 137.037 842.85 128.889Z" fill="#FFFFFF"/>
<path d="M916.109 91.9444H947.922V173.333C947.922 182.407 950.155 189.63 954.62 195C959.085 200.185 965.41 202.778 973.596 202.778C982.34 202.778 989.224 199.722 994.247 193.611C999.456 187.315 1002.06 178.981 1002.06 168.611V91.9444H1033.87V228.055H1002.62V216.944C993.875 226.389 982.061 231.111 967.178 231.111C951.55 231.111 939.085 225.833 929.783 215.278C920.667 204.537 916.109 189.815 916.109 171.111V91.9444Z" fill="#FFFFFF"/>
<path d="M1125.36 176.667L1107.22 172.222C1079.5 165.741 1065.64 151.389 1065.64 129.167C1065.64 116.944 1070.29 107.13 1079.59 99.7221C1088.9 92.3147 1100.9 88.611 1115.59 88.611C1135.31 88.611 1152.52 96.2036 1167.22 111.389L1146.85 133.055C1138.48 121.574 1127.78 115.833 1114.76 115.833C1109.17 115.833 1104.62 117.13 1101.08 119.722C1097.73 122.13 1096.06 125.093 1096.06 128.611C1096.06 134.907 1100.52 139.167 1109.45 141.389L1130.94 146.389C1158.85 152.685 1172.8 166.852 1172.8 188.889C1172.8 201.481 1167.96 211.667 1158.29 219.444C1148.8 227.222 1135.59 231.111 1118.66 231.111C1094.85 231.111 1075.97 222.315 1062.01 204.722L1082.1 184.167C1092.15 197.315 1105.17 203.889 1121.17 203.889C1135.13 203.889 1142.1 199.259 1142.1 190C1142.1 184.074 1136.52 179.63 1125.36 176.667Z" fill="#FFFFFF"/>
<path d="M1238.56 231.111C1225.36 231.111 1214.38 227.407 1205.63 220C1196.89 212.407 1192.52 202.315 1192.52 189.722C1192.52 175.278 1197.73 164.074 1208.15 156.111C1218.56 148.148 1232.33 144.167 1249.45 144.167C1258.01 144.167 1267.21 145.741 1277.08 148.889V139.722C1277.08 133.055 1274.56 127.685 1269.54 123.611C1264.52 119.352 1258.1 117.222 1250.28 117.222C1235.96 117.222 1225.17 123.796 1217.91 136.944L1196.43 116.944C1201.45 107.87 1208.8 100.926 1218.47 96.111C1228.33 91.111 1239.03 88.611 1250.56 88.611C1268.61 88.611 1282.84 93.0555 1293.26 101.944C1303.68 110.833 1308.89 123.518 1308.89 140V228.055H1277.63V217.5C1267.4 226.574 1254.38 231.111 1238.56 231.111ZM1224.33 187.5C1224.33 192.13 1226.1 195.926 1229.63 198.889C1233.35 201.852 1238.47 203.333 1244.98 203.333C1258.38 203.333 1269.08 199.444 1277.08 191.667V176.111C1267.03 172.407 1257.54 170.555 1248.61 170.555C1241.17 170.555 1235.22 172.037 1230.75 175C1226.47 177.963 1224.33 182.13 1224.33 187.5Z" fill="#FFFFFF"/>
<path d="M248.667 63.95L184.267 26.8937C163.196 14.7392 137.377 14.7392 116.306 26.8937L51.6095 63.95C30.8354 76.1045 17.7773 98.6348 17.7773 122.647V197.056C17.7773 221.365 30.8354 243.599 51.6095 255.754L116.009 293.106C137.08 305.261 162.899 305.261 183.97 293.106L248.37 255.754C269.441 243.599 282.202 221.365 282.202 197.056V122.647C282.796 98.6348 269.738 76.1045 248.667 63.95ZM150.138 226.109C113.635 226.109 83.9578 196.463 83.9578 160C83.9578 123.537 113.635 93.8915 150.138 93.8915C186.641 93.8915 216.615 123.537 216.615 160C216.615 196.463 186.938 226.109 150.138 226.109Z" fill="#8B5CF6"/>
</svg>
