<svg width="3619" height="649" viewBox="0 0 3619 649" fill="none" xmlns="http://www.w3.org/2000/svg">
<rect width="648.605" height="648.605" rx="140" fill="#FFC300"/>
<path d="M167.04 262.706C167.04 209.297 207.521 166 257.457 166C307.393 166 347.874 209.297 347.874 262.706H167.04ZM167 318.355V317.862H231.518V318.355C231.518 371.711 273.147 414.965 324.5 414.965C375.852 414.965 417.482 371.711 417.482 318.355V317.862H482V318.355C482 408.734 411.485 482 324.5 482C237.515 482 167 408.734 167 318.355Z" fill="#1F1F1F"/>
<path d="M167.04 262.706C167.04 209.297 207.521 166 257.457 166C307.393 166 347.874 209.297 347.874 262.706H167.04ZM167 318.355V317.862H231.518V318.355C231.518 371.711 273.147 414.965 324.5 414.965C375.852 414.965 417.482 371.711 417.482 318.355V317.862H482V318.355C482 408.734 411.485 482 324.5 482C237.515 482 167 408.734 167 318.355Z" stroke="#1F1F1F"/>
<path d="M3578.92 480.871C3567.49 480.871 3557.9 477 3550.16 469.258C3542.42 461.516 3538.55 451.93 3538.55 440.502C3538.55 429.073 3542.42 419.488 3550.16 411.746C3557.9 404.004 3567.49 400.133 3578.92 400.133C3589.98 400.133 3599.38 404.004 3607.12 411.746C3614.86 419.488 3618.73 429.073 3618.73 440.502C3618.73 451.93 3614.86 461.516 3607.12 469.258C3599.38 477 3589.98 480.871 3578.92 480.871Z" fill="#FFFF"/>
<path d="M1634.1 222.219V171.517H1559.99V95.756H1496.4V171.517H1460.45V222.219H1634.1Z" fill="#FFFF"/>
<path d="M1496.4 221.219H1559.99V391.611C1559.99 403.04 1562.57 411.335 1567.74 416.496C1573.27 421.289 1582.48 423.685 1595.39 423.685H1634.1V476.22H1584.33C1555.94 476.22 1534.19 469.584 1519.07 456.312C1503.96 443.04 1496.4 421.473 1496.4 391.611V274.219Z" fill="#FFFF"/>
<path fill-rule="evenodd" clip-rule="evenodd" d="M1030.63 399.219H1101.7C1091.92 421.143 1076.91 439.621 1056.66 454.653C1032.7 472.349 1002.84 481.197 967.075 481.197C937.95 481.197 911.775 474.745 888.549 461.842C865.692 448.57 847.627 430.137 834.355 406.542C821.452 382.579 815 354.929 815 323.592C815 292.255 821.267 264.79 833.802 241.195C846.705 217.232 864.586 198.798 887.443 185.895C910.669 172.992 937.213 166.54 967.075 166.54C995.831 166.54 1021.45 172.807 1043.94 185.342C1066.43 197.877 1083.94 215.573 1096.48 238.43C1109.01 260.919 1115.28 286.91 1115.28 316.403C1115.28 327.769 1114.55 338.041 1113.09 347.219H1021.54V347.371H880.254C882.097 371.703 891.13 391.242 907.351 405.989C923.572 420.736 943.48 428.109 967.075 428.109C995.013 428.109 1016.2 418.479 1030.63 399.219ZM1024.59 240.642C1040.81 254.651 1049.1 273.269 1049.47 296.495H880.807C883.756 272.9 892.973 254.283 908.457 240.642C923.941 226.633 942.559 219.628 964.31 219.628C988.273 219.628 1008.37 226.633 1024.59 240.642Z" fill="#FFFF"/>
<path d="M3494.5 222.219V171.517H3420.4V95.756H3356.81V171.517H3320.86V222.219H3494.5Z" fill="#FFFF"/>
<path d="M3356.81 221.219H3420.4V391.611C3420.4 403.04 3422.98 411.335 3428.14 416.496C3433.67 421.289 3442.89 423.685 3455.79 423.685H3494.5V476.22H3444.73C3416.35 476.22 3394.59 469.584 3379.48 456.312C3364.36 443.04 3356.81 421.473 3356.81 391.611V274.219Z" fill="#FFFF"/>
<path d="M2668.89 171.517V476.22H2605.85V171.517H2668.89Z" fill="#FFFF"/>
<path d="M1886.74 181.471C1868.68 171.517 1848.03 166.54 1824.8 166.54C1805.27 166.54 1787.2 170.042 1770.61 177.047C1754.39 184.052 1740.93 194.006 1730.24 206.909V67H1667.2V476.22H1730.24V305.896C1730.24 278.615 1737.06 257.785 1750.7 243.407C1764.71 228.66 1783.51 221.287 1807.11 221.287C1830.7 221.287 1849.32 228.66 1862.96 243.407C1876.6 257.785 1883.42 278.615 1883.42 305.896V476.22H1945.91V296.495C1945.91 268.845 1940.57 245.25 1929.87 225.711C1919.55 206.172 1905.17 191.425 1886.74 181.471Z" fill="#FFFF"/>
<path d="M1370.2 181.471C1351.4 171.517 1330.02 166.54 1306.05 166.54C1287.99 166.54 1270.85 170.042 1254.62 177.047C1238.77 184.052 1225.68 193.821 1215.36 206.356V171.517H1152.32V476.22H1215.36V305.896C1215.36 278.615 1222.18 257.785 1235.82 243.407C1249.83 228.66 1268.63 221.287 1292.23 221.287C1315.82 221.287 1334.44 228.66 1348.08 243.407C1361.72 257.785 1368.54 278.615 1368.54 305.896V476.22H1431.03V296.495C1431.03 268.845 1425.69 245.25 1414.99 225.711C1404.3 206.172 1389.37 191.425 1370.2 181.471Z" fill="#FFFF"/>
<path d="M2277.27 171.517V476.22H2214.23V440.275C2204.28 452.81 2191.19 462.764 2174.97 470.137C2159.11 477.142 2142.16 480.644 2124.09 480.644C2100.13 480.644 2078.56 475.667 2059.39 465.713C2040.59 455.759 2025.66 441.012 2014.6 421.473C2003.91 401.934 1998.56 378.339 1998.56 350.689V171.517H2061.05V341.288C2061.05 368.569 2067.87 389.583 2081.51 404.33C2095.15 418.708 2113.77 425.897 2137.36 425.897C2160.96 425.897 2179.58 418.708 2193.22 404.33C2207.23 389.583 2214.23 368.569 2214.23 341.288V171.517H2277.27Z" fill="#FFFF"/>
<path d="M2381.35 468.478C2400.52 476.957 2422.09 481.197 2446.05 481.197C2469.65 481.197 2490.11 477.326 2507.43 469.584C2525.13 461.842 2538.77 451.151 2548.36 437.51C2557.94 423.869 2562.73 408.385 2562.73 391.058C2562.37 371.519 2557.02 355.85 2546.7 344.053C2536.37 332.256 2524.02 323.408 2509.65 317.509C2495.64 311.242 2477.57 305.159 2455.45 299.26C2438.86 294.467 2426.33 290.596 2417.85 287.647C2409.37 284.329 2402.18 279.905 2396.28 274.375C2390.38 268.845 2387.43 262.025 2387.43 253.914C2387.43 243.591 2391.86 235.296 2400.71 229.029C2409.55 222.762 2422.27 219.628 2438.86 219.628C2455.82 219.628 2469.28 223.683 2479.23 231.794C2489.19 239.905 2494.72 250.78 2495.82 264.421H2558.86C2557.39 234.19 2545.96 210.411 2524.58 193.084C2503.56 175.388 2475.73 166.54 2441.07 166.54C2417.85 166.54 2397.2 170.411 2379.14 178.153C2361.44 185.895 2347.8 196.586 2338.22 210.227C2328.63 223.499 2323.84 238.246 2323.84 254.467C2323.84 274.375 2329 290.412 2339.32 302.578C2350.01 314.744 2362.55 323.776 2376.93 329.675C2391.3 335.574 2409.92 341.657 2432.78 347.924C2456.37 354.56 2473.52 360.643 2484.21 366.173C2495.27 371.703 2500.8 380.182 2500.8 391.611C2500.8 402.302 2495.82 411.15 2485.87 418.155C2476.28 424.791 2462.64 428.109 2444.95 428.109C2427.99 428.109 2413.79 423.869 2402.36 415.39C2391.3 406.542 2385.22 395.666 2384.12 382.763H2318.86C2319.6 401.196 2325.5 417.971 2336.56 433.086C2347.62 447.833 2362.55 459.63 2381.35 468.478Z" fill="#FFFF"/>
<path fill-rule="evenodd" clip-rule="evenodd" d="M2724.45 241.195C2711.92 264.79 2705.65 291.887 2705.65 322.486C2705.65 353.085 2711.92 380.551 2724.45 404.883C2737.35 428.846 2754.68 447.648 2776.43 461.289C2798.18 474.561 2822.15 481.197 2848.32 481.197C2871.92 481.197 2892.93 476.404 2911.37 466.819C2929.8 457.234 2944.36 445.252 2955.05 430.874V476.22H3018.65V171.517H2955.05V215.757C2944.36 201.748 2929.98 190.135 2911.92 180.918C2894.22 171.333 2873.39 166.54 2849.43 166.54C2822.89 166.54 2798.55 173.176 2776.43 186.448C2754.68 199.351 2737.35 217.6 2724.45 241.195ZM2941.78 268.845C2950.63 284.329 2955.05 302.578 2955.05 323.592C2955.05 344.606 2950.63 363.039 2941.78 378.892C2933.3 394.376 2922.06 406.173 2908.05 414.284C2894.04 422.395 2878.92 426.45 2862.7 426.45C2846.85 426.45 2831.73 422.395 2817.36 414.284C2803.35 405.805 2791.92 393.639 2783.07 377.786C2774.59 361.933 2770.35 343.5 2770.35 322.486C2770.35 301.472 2774.59 283.407 2783.07 268.292C2791.92 252.808 2803.35 241.195 2817.36 233.453C2831.36 225.342 2846.48 221.287 2862.7 221.287C2878.92 221.287 2894.04 225.342 2908.05 233.453C2922.06 241.564 2933.3 253.361 2941.78 268.845Z" fill="#FFFF"/>
<path d="M3187.05 481.197C3163.09 481.197 3141.52 476.957 3122.35 468.478C3103.55 459.63 3088.62 447.833 3077.56 433.086C3066.5 417.971 3060.6 401.196 3059.86 382.763H3125.11C3126.22 395.666 3132.3 406.542 3143.36 415.39C3154.79 423.869 3168.99 428.109 3185.94 428.109C3203.64 428.109 3217.28 424.791 3226.87 418.155C3236.82 411.15 3241.8 402.302 3241.8 391.611C3241.8 380.182 3236.27 371.703 3225.21 366.173C3214.52 360.643 3197.37 354.56 3173.78 347.924C3150.92 341.657 3132.3 335.574 3117.93 329.675C3103.55 323.776 3091.01 314.744 3080.32 302.578C3070 290.412 3064.84 274.375 3064.84 254.467C3064.84 238.246 3069.63 223.499 3079.22 210.227C3088.8 196.586 3102.44 185.895 3120.14 178.153C3138.2 170.411 3158.85 166.54 3182.07 166.54C3216.73 166.54 3244.56 175.388 3265.58 193.084C3286.96 210.411 3298.39 234.19 3299.86 264.421H3236.82C3235.71 250.78 3230.18 239.905 3220.23 231.794C3210.28 223.683 3196.82 219.628 3179.86 219.628C3163.27 219.628 3150.55 222.762 3141.7 229.029C3132.86 235.296 3128.43 243.591 3128.43 253.914C3128.43 262.025 3131.38 268.845 3137.28 274.375C3143.18 279.905 3150.37 284.329 3158.85 287.647C3167.33 290.596 3179.86 294.467 3196.45 299.26C3218.57 305.159 3236.64 311.242 3250.65 317.509C3265.02 323.408 3277.37 332.256 3287.7 344.053C3298.02 355.85 3303.36 371.519 3303.73 391.058C3303.73 408.385 3298.94 423.869 3289.36 437.51C3279.77 451.151 3266.13 461.842 3248.43 469.584C3231.11 477.326 3210.65 481.197 3187.05 481.197Z" fill="#FFFF"/>
</svg>
