<svg width="649" height="650" viewBox="0 0 649 650" fill="none" xmlns="http://www.w3.org/2000/svg">
<rect y="0.765625" width="648.605" height="648.605" rx="140" fill="#FFC300"/>
<path d="M260.382 180.031C212.001 180.031 172.781 221.866 172.781 273.472H347.982C347.982 221.866 308.762 180.031 260.382 180.031Z" fill="#1F1F1F"/>
<path d="M260.382 180.031C212.001 180.031 172.781 221.866 172.781 273.472H347.982C347.982 221.866 308.762 180.031 260.382 180.031Z" stroke="#1F1F1F"/>
<path fill-rule="evenodd" clip-rule="evenodd" d="M172.742 326.508V327.242C172.742 414.569 241.061 485.361 325.337 485.361C409.612 485.361 477.931 414.569 477.931 327.242V326.508H415.423V327.242C415.423 378.796 375.09 420.59 325.337 420.59C275.584 420.59 235.251 378.796 235.251 327.242V326.508H172.742Z" fill="#1F1F1F"/>
</svg>
